<svg xmlns="http://www.w3.org/2000/svg" viewBox="0 0 64 64" role="img" aria-label="Quiz Tap trophy favicon">
  <defs>
    <linearGradient id="g" x1="0" x2="1" y1="0" y2="1">
      <stop offset="0%" stop-color="#60a5fa"/>
      <stop offset="100%" stop-color="#2563eb"/>
    </linearGradient>
  </defs>
  <rect width="64" height="64" rx="14" fill="#eff6ff"/>
  <path d="M20 12h24v8c0 6-4 10-9 12v4h6a2 2 0 0 1 2 2v2H15v-2a2 2 0 0 1 2-2h6v-4c-5-2-9-6-9-12v-8Z" fill="url(#g)"/>
  <path d="M22 20h20" stroke="#fff" stroke-width="3" stroke-linecap="round" opacity="0.9"/>
  <path d="M16 18h-4a4 4 0 0 0 4 4" fill="none" stroke="#2563eb" stroke-width="3" stroke-linecap="round"/>
  <path d="M48 18h4a4 4 0 0 1-4 4" fill="none" stroke="#2563eb" stroke-width="3" stroke-linecap="round"/>
  <path d="M32 12v24" stroke="#fff" stroke-width="3" stroke-linecap="round" opacity="0.85"/>
  <path d="M21 39h22" stroke="#2563eb" stroke-width="3" stroke-linecap="round"/>
  <path d="M26 44h12" stroke="#2563eb" stroke-width="3" stroke-linecap="round"/>
  <path d="M22 48h20" stroke="#2563eb" stroke-width="3" stroke-linecap="round"/>
  <circle cx="20" cy="12" r="2.5" fill="#f59e0b"/>
  <circle cx="44" cy="12" r="2.5" fill="#f59e0b"/>
  <path d="M16 10l2 4 4 1-3 3 1 4-4-2-4 2 1-4-3-3 4-1 2-4Z" fill="#f59e0b" opacity="0.9"/>
  <path d="M48 10l2 4 4 1-3 3 1 4-4-2-4 2 1-4-3-3 4-1 2-4Z" fill="#f59e0b" opacity="0.9"/>
</svg>
